<?xml version="1.0" encoding="UTF-8"?><!DOCTYPE svg PUBLIC "-//W3C//DTD SVG 1.1//EN" "http://www.w3.org/Graphics/SVG/1.1/DTD/svg11.dtd"><svg xmlns="http://www.w3.org/2000/svg" xmlns:xlink="http://www.w3.org/1999/xlink"><symbol id="icon-burger_spr" viewBox="0 0 76.166 68.959">
  <g>
    <path d="M71.914,46.042H4.252C1.914,46.042,0,47.955,0,50.294v3.454C0,56.086,1.914,58,4.252,58h0.956v1.037 c0,5.457,4.464,9.922,9.921,9.922h45.908c5.456,0,9.921-4.465,9.921-9.922V58h0.956c2.339,0,4.252-1.914,4.252-4.252v-3.454 C76.166,47.955,74.253,46.042,71.914,46.042z M67.958,59.037c0,3.815-3.104,6.922-6.921,6.922H15.129 c-3.816,0-6.921-3.104-6.921-6.922V58h59.75V59.037z M73.166,53.748c0,0.679-0.573,1.252-1.252,1.252H4.252 C3.573,55,3,54.427,3,53.748v-3.454c0-0.679,0.573-1.252,1.252-1.252h67.662c0.679,0,1.252,0.573,1.252,1.252V53.748z"/>
    <polygon points="16.162,37.856 21.635,41.856 27.112,37.856 32.591,41.856 38.069,37.856 43.548,41.856 49.026,37.856 54.505,41.856 59.985,37.856 65.474,41.856 71.842,37.212 70.074,34.788 65.474,38.144 59.985,34.144 54.505,38.144 49.026,34.143 43.548,38.144 38.069,34.143 32.591,38.144 27.112,34.143 21.636,38.144 16.163,34.142 10.686,38.144 6.093,34.789 4.323,37.211 10.686,41.856 	"/>
    <path d="M70.888,31.094c0.041-0.61,0.055-2.616,0.037-3C70.242,12.476,55.804,0,38.083,0C20.363,0,5.924,12.476,5.241,28.094 c-0.017,0.384-0.004,2.389,0.039,3H70.888z M38.083,3c16.031,0,29.15,11.154,29.842,25.094H8.241C8.933,14.154,22.051,3,38.083,3z"/>
    <circle cx="38.083" cy="15.042" r="2"/>
    <circle cx="30.083" cy="10.083" r="2"/>
    <circle cx="46.083" cy="10.083" r="2"/>
  </g>
</symbol><symbol id="icon-gift_spr" viewBox="0 0 63 75.084">
  <path d="M60.165,22.23h-0.103H35.758c13.604-6.815,14.688-11.115,14.188-13.52c-1.145-3.916-5.604-6.938-9.848-5.341 c-5.484,2.063-7.029,10.262-8.514,16.19C29.69,13.561,27.858,5.91,23.573,2.034c-1.242-1.125-3.049-2.237-5.676-2.003 c-3.965,0.352-9.652,5.317-7.344,10.849c2.217,5.313,9.539,8.67,14.354,11.35H2.834C1.275,22.23,0,23.506,0,25.065V36.25 c0,1.559,1.275,2.834,2.835,2.834h0.27v35.999h56.958V39.084h0.104c1.561,0,2.835-1.275,2.835-2.834V25.065 C63,23.506,61.725,22.23,60.165,22.23z M41.766,5.873c2.07-0.306,4.907,1.283,5.176,3.171c0.386,2.723-3.349,5.192-5.008,6.343 c-2.484,1.723-4.853,2.611-7.178,4.006C35.628,15.748,37.268,6.539,41.766,5.873z M19.232,15.721 c-2.19-1.467-6.444-4.378-6.342-7.678c0.11-3.552,5.655-6.491,8.68-3.839c3.797,3.331,5.625,10.972,7.01,16.357 C25.381,19.042,22.35,17.808,19.232,15.721z M25.114,72.147H6.042V39.084h19.072V72.147z M25.114,36.084H3V25.23h22.114V36.084z  M35.115,72.146h-7.063V25.23h7.063V72.146z M57.125,72.147H38.053V39.084h19.072V72.147z M60,36.084H38.053V25.23H60V36.084z"/>
</symbol><symbol id="icon-house_spr" viewBox="0 0 74.695 72.346">
  <g>
    <path d="M29.503,65.345h16V41.407h-16V65.345z M42.566,62.407H32.441V44.345h10.125V62.407z"/>
    <path d="M72.62,39.44l2.075-2.078l-9.907-9.913V0.47H50.974v13.161L37.349,0L0,37.363l2.077,2.078l7.832-7.832v37.799H5.971v2.938 h63.875v-2.938h-5.059v-37.8L72.62,39.44z M53.913,3.408h7.938v21.104l-7.938-7.94V3.408z M61.85,69.407H12.846V28.671 L37.348,4.169L61.85,28.671V69.407z"/>
    <path d="M29.753,27.21c0,4.28,3.47,7.75,7.75,7.75s7.75-3.47,7.75-7.75c0-4.279-3.47-7.75-7.75-7.75S29.753,22.93,29.753,27.21z M37.503,22.241c2.745,0,4.97,2.225,4.97,4.97s-2.225,4.971-4.97,4.971s-4.97-2.226-4.97-4.971S34.759,22.241,37.503,22.241z"/>
    <rect x="16.909" y="41.407" width="3" height="3.938"/>
    <rect x="22.846" y="41.407" width="3" height="3.938"/>
    <rect x="16.909" y="47.407" width="3" height="3.938"/>
    <rect x="22.846" y="47.407" width="3" height="3.938"/>
    <rect x="48.846" y="41.407" width="3" height="3.938"/>
    <rect x="54.784" y="41.407" width="3" height="3.938"/>
    <rect x="48.846" y="47.407" width="3" height="3.938"/>
    <rect x="54.784" y="47.407" width="3" height="3.938"/>
  </g>
</symbol><symbol id="icon-like_spr" viewBox="0 0 22 20">
  <g id="Page-1">
    <g id="Core" transform="translate(-295.000000, -464.000000)">
      <g id="thumb-up" transform="translate(295.000000, 464.000000)">
        <path id="Shape" fill="#000000" d="M12.383,3.646l-0.637,2.929L11.219,9H13.7h6.2v2c0,0.018,0,0.037,0.001,0.058L17,18H8V8.029 l0.014-0.015L12.383,3.646 M2,10v8V10 M13.2,0L6.6,6.6C6.2,6.9,6,7.4,6,8v10c0,1.1,0.9,2,2,2h9c0.8,0,1.5-0.5,1.8-1.2l3-7.1 C21.9,11.5,21.9,11.2,21.9,11V9H22c0-1.1-0.9-2-2-2h-6.3l1-4.6V2.1c0-0.4-0.2-0.8-0.4-1.1L13.2,0L13.2,0z M4,8H0v12h4V8L4,8z M22,9c0,0.033,0,0.044,0,0.044V9L22,9z"/>
      </g>
    </g>
  </g>
</symbol><symbol id="icon-video-fullscreen_spr" viewBox="0 0 20 20">
  <g>
    <polygon points="0,0 0,3 0,6 3,6 3,3 6,3 6,0 3,0"/>
    <polygon points="3,14 0,14 0,17 0,20 3,20 6,20 6,17 3,17"/>
    <polygon points="17,0 14,0 14,3 17,3 17,6 20,6 20,3 20,0"/>
    <polygon points="17,17 14,17 14,20 17,20 20,20 20,17 20,14 17,14"/>
  </g>
</symbol><symbol id="icon-video-replay_spr" viewBox="0 0 16 20">
  <path d="M8,4V0L3,5l5,5V6c3.315,0,6,2.686,6,6s-2.685,6-6,6s-6-2.686-6-6H0c0,4.42,3.58,8,8,8s8-3.58,8-8S12.42,4,8,4z"/>
</symbol><symbol id="icon-video-subtitles_spr" viewBox="0 0 32 20">
  <path d="M29,0H3C1.35,0,0,1.35,0,3v14c0,1.65,1.35,3,3,3h26c1.65,0,3-1.35,3-3V3C32,1.35,30.65,0,29,0z M14.403,15.854c-0.545,0.108-1.104,0.164-1.678,0.164c-0.694,0-1.354-0.107-1.976-0.323c-0.623-0.214-1.172-0.562-1.646-1.041 s-0.852-1.103-1.133-1.868C7.69,12.02,7.551,11.091,7.551,10c0-1.134,0.157-2.085,0.471-2.851c0.315-0.768,0.723-1.384,1.224-1.854  c0.502-0.468,1.062-0.804,1.679-1.008c0.616-0.204,1.233-0.307,1.852-0.307c0.66,0,1.22,0.045,1.678,0.134  c0.457,0.087,0.835,0.192,1.133,0.313L15.14,6.347c-0.254-0.121-0.555-0.209-0.902-0.265C13.891,6.027,13.47,6,12.973,6 c-0.915,0-1.649,0.325-2.206,0.977c-0.558,0.651-0.836,1.663-0.836,3.031c0,0.598,0.067,1.142,0.199,1.632  c0.132,0.493,0.334,0.913,0.603,1.26c0.271,0.349,0.607,0.619,1.01,0.812c0.402,0.193,0.867,0.29,1.396,0.29  c0.496,0,0.915-0.049,1.257-0.148c0.342-0.099,0.639-0.227,0.893-0.38l0.463,1.841C15.398,15.564,14.949,15.745,14.403,15.854z   M23.101,15.854c-0.545,0.108-1.105,0.164-1.678,0.164c-0.694,0-1.354-0.107-1.976-0.323c-0.623-0.214-1.172-0.562-1.646-1.041  s-0.852-1.103-1.133-1.868c-0.281-0.767-0.421-1.695-0.421-2.786c0-1.134,0.157-2.085,0.471-2.851  c0.314-0.768,0.723-1.384,1.223-1.854c0.502-0.468,1.062-0.804,1.68-1.008c0.616-0.204,1.233-0.307,1.851-0.307 c0.661,0,1.221,0.045,1.678,0.134c0.458,0.087,0.836,0.192,1.133,0.313l-0.446,1.918c-0.253-0.121-0.554-0.209-0.901-0.265  C22.588,6.027,22.166,6,21.67,6c-0.915,0-1.649,0.325-2.206,0.977c-0.558,0.651-0.836,1.663-0.836,3.031  c0,0.598,0.067,1.142,0.199,1.632c0.132,0.493,0.334,0.913,0.603,1.26c0.271,0.349,0.606,0.619,1.009,0.812 c0.402,0.193,0.868,0.29,1.396,0.29c0.497,0,0.915-0.049,1.257-0.148c0.342-0.099,0.64-0.227,0.894-0.38l0.463,1.841  C24.096,15.564,23.646,15.745,23.101,15.854z"/>
</symbol><symbol id="logo-htmlacademy_spr" viewBox="0 0 26.943 34.09">
  <path d="M13.62,0.017L13.472,0L0,1.412v24.661l13.473,8.017l13.43-7.99l0.042-0.025V1.412L13.62,0.017z M25.019,12.127L13.495,5.334 L13.494,5.23l-0.087,0.05l-0.088-0.056v0.109L1.925,12.118V3.147l11.548-1.212l11.547,1.212V12.127z M13.405,6.787L24.923,13.5 l-4.479,2.64l-7.093-4.221l-0.014,1.415l5.904,3.513l-0.86,0.507l-5.03-2.992l-0.014,1.415l3.827,2.275l-0.782,0.523l-3.031-1.787 l-0.014,1.413l1.853,1.091l-1.8,1.081L2.034,13.622L13.405,6.787z M1.925,15.127l11.411,6.791l0.016,1.044L5.41,18.234L5.395,19.65 l7.979,4.795l0.018,1.076l-7.973-4.74l-0.013,1.414l8.021,4.822l0.046,0.025l8.143-4.872l-0.011-5.177l3.415-2.036v10.021 L13.472,31.85L1.925,24.979V15.127z"/>
</symbol></svg>